{"title":"People.Like.Us.2012.480p.BluRay.x264.By.ToXiiC.Ar.Sub","uid":7682633,"size":356463264,"categoryP":"video","categoryS":"movies","magnet":"?xt=urn:btih:eb13e18282cc45e6d8fb1219589af2922de8e408&amp;dn=People.Like.Us.2012.480p.BluRay.x264.By.ToXiiC.Ar.Sub&amp;tr=udp%3A%2F%2Ftracker.openbittorrent.com%3A80&amp;tr=udp%3A%2F%2Fopen.demonii.com%3A1337&amp;tr=udp%3A%2F%2Ftracker.coppersurfer.tk%3A6969&amp;tr=udp%3A%2F%2Fexodus.desync.com%3A6969","seeders":0,"leechers":0,"uploader":"ToXiiiC","files":-1,"time":1348861593,"description":"General\nComplete name                            :[ ArabJoy.Com ] - People.Like.Us.2012.480p.BluRay.x264.By.ToXiiC.mkv\nFormat                                   : RealMedia\nFile size                                : 340 MiB\nDuration                                 : 1h 54mn\nOverall bit rate                         : 403 Kbps\nPerformer                                : ArabJoy.Com\nCopyright                                : ArabJoy.Com\n\nVideo\nID                                       : 1\nFormat                                   : RealVideo 4\nCodec ID                                 : RV40\nCodec ID/Info                            : Based on AVC (H.264), Real Player 9\nDuration                                 : 1h 54mn\nBit rate                                 : 371 Kbps\nWidth                                    : 720 pixels\nHeight                                   : 408 pixels\nDisplay aspect ratio                     : 16:9\nFrame rate                               : 23.976 fps\nBits/(Pixel*Frame)                       : 0.053\nStream size                              : 304 MiB (89%)\n\nAudio\nID                                       : 0\nFormat                                   : Cooker\nCodec ID                                 : cook\nCodec ID/Info                            : Based on G.722.1, Real Player 6\nDuration                                 : 1h 54mn\nBit rate                                 : 32.0 Kbps\nChannel(s)                               : 2 channels\nSampling rate                            : 22.05 KHz\nBit depth                                : 16 bits\nStream size                              : 26.3 MiB (8%)\n\nSubtitle : Arabic ..","torrent":{"xt":"urn:btih:eb13e18282cc45e6d8fb1219589af2922de8e408","amp;dn":"People.Like.Us.2012.480p.BluRay.x264.By.ToXiiC.Ar.Sub","amp;tr":["udp%3A%2F%2Ftracker.openbittorrent.com%3A80","udp%3A%2F%2Fopen.demonii.com%3A1337","udp%3A%2F%2Ftracker.coppersurfer.tk%3A6969","udp%3A%2F%2Fexodus.desync.com%3A6969"],"infoHash":"eb13e18282cc45e6d8fb1219589af2922de8e408","infoHashBuffer":{"type":"Buffer","data":[235,19,225,130,130,204,69,230,216,251,18,25,88,154,242,146,45,232,228,8]},"announce":[],"urlList":[]}}